<svg width="335" height="335" viewBox="0 0 335 335" fill="none" xmlns="http://www.w3.org/2000/svg">
<path d="M320.448 22.9632C315.56 15.0174 307.043 10.4688 297.072 10.4688C291.272 10.4688 285.305 11.9972 279.338 15.007C259.159 25.2035 233.474 43.6285 206.522 66.9267L151.844 60.8496L161.753 50.9357L151.76 40.938L133.848 58.8448L76.8406 52.5165L88.7227 40.6345L78.7198 30.6316L58.8448 50.5169L17.1269 45.8793C6.82563 44.733 8.8147 70.6222 20.7909 76.2073L140.496 132.006C117.423 157.785 86.2991 195.844 74.8045 225.026L22.3089 219.195C18.76 218.807 19.4405 227.701 23.5599 229.622C50.0511 241.964 63.9536 248.45 71.2608 251.857C71.4283 252.407 71.6534 252.93 71.868 253.454C61.797 265.613 56.1387 274.836 58.1853 276.867C60.2058 278.882 69.3764 273.255 81.4835 263.216C82.0279 263.446 82.5932 263.671 83.2004 263.865L105.373 311.451C107.299 315.575 116.198 316.24 115.805 312.702L110 260.353C135.445 250.177 170.306 224.199 203.089 194.698L258.777 314.199C264.367 326.201 290.267 328.169 289.121 317.857L284.483 276.134L304.358 256.265L294.355 246.262L282.483 258.138L276.155 201.126L294.051 183.235L284.049 173.226L274.15 183.13L268.078 128.478C291.387 101.526 309.812 75.8409 319.998 55.6623C325.887 43.974 326.049 32.0553 320.448 22.9632ZM311.032 51.1398C297.025 78.8925 265.456 119.605 224.555 160.496C180.387 204.675 136.476 237.913 108.833 249.936L107.619 238.954C128.331 217.797 142.427 198.645 139.423 195.598C136.376 192.573 117.219 206.679 96.056 227.397L85.0063 226.167C97.061 198.529 130.373 154.587 174.514 110.445C215.41 69.5544 256.118 37.9859 283.865 23.9682C288.597 21.5866 293.078 20.5083 297.077 20.5083C311.367 20.503 319.548 34.2485 311.032 51.1398Z" fill="black" fill-opacity="0.05"/>
<path d="M276.077 31.7044L258.829 42.4192C266.707 39.6973 277.448 43.0735 283.682 48.0514L297.517 34.2222C291.811 29.8201 283.855 29.0873 276.077 31.7044ZM286.948 51.3176C291.921 57.5518 295.297 68.2927 292.575 76.1652L303.29 58.918C305.907 51.1344 305.169 43.1834 300.778 37.4832L286.948 51.3176Z" fill="black" fill-opacity="0.05"/>
</svg>
