<svg width="20" height="20" viewBox="0 0 20 20" fill="none" xmlns="http://www.w3.org/2000/svg">
<path d="M10 1.8023C12.6717 1.8023 12.9853 1.8142 14.0413 1.8618C15.0179 1.9055 15.5459 2.0683 15.8992 2.2072C16.3676 2.3898 16.7011 2.6042 17.0504 2.9536C17.3998 3.3029 17.6181 3.6364 17.7968 4.1048C17.9317 4.4581 18.0985 4.9861 18.1421 5.9627C18.1898 7.0187 18.2017 7.3323 18.2017 10.004C18.2017 12.6757 18.1898 12.9893 18.1421 14.0453C18.0985 15.0218 17.9357 15.5498 17.7968 15.9031C17.6141 16.3716 17.3998 16.705 17.0504 17.0544C16.7011 17.4037 16.3676 17.6221 15.8992 17.8007C15.5459 17.9357 15.0179 18.1024 14.0413 18.1461C12.9853 18.1937 12.6717 18.2056 10 18.2056C7.3283 18.2056 7.0147 18.1937 5.9587 18.1461C4.9821 18.1024 4.4542 17.9397 4.1008 17.8007C3.6324 17.6181 3.2989 17.4037 2.9496 17.0544C2.6002 16.705 2.3819 16.3716 2.2033 15.9031C2.0683 15.5498 1.9015 15.0218 1.8579 14.0453C1.8102 12.9893 1.7983 12.6757 1.7983 10.004C1.7983 7.3323 1.8102 7.0187 1.8579 5.9627C1.9015 4.9861 2.0643 4.4581 2.2033 4.1048C2.3859 3.6364 2.6002 3.3029 2.9496 2.9536C3.2989 2.6042 3.6324 2.3859 4.1008 2.2072C4.4542 2.0723 4.9821 1.9055 5.9587 1.8618C7.0147 1.8102 7.3323 1.8023 10 1.8023ZM10 0C7.2846 0 6.9432 0.0118997 5.8754 0.0594997C4.8114 0.1072 4.085 0.2779 3.4498 0.524C2.7908 0.7781 2.235 1.1235 1.6792 1.6792C1.1235 2.235 0.7821 2.7948 0.524 3.4498C0.2779 4.085 0.1072 4.8114 0.0594997 5.8793C0.0118997 6.9432 0 7.2846 0 10C0 12.7154 0.0118997 13.0568 0.0594997 14.1247C0.1072 15.1886 0.2779 15.915 0.524 16.5542C0.7781 17.2132 1.1235 17.769 1.6792 18.3247C2.235 18.8805 2.7948 19.2219 3.4498 19.48C4.085 19.7261 4.8114 19.8968 5.8793 19.9444C6.9472 19.9921 7.2846 20.004 10.004 20.004C12.7233 20.004 13.0607 19.9921 14.1286 19.9444C15.1925 19.8968 15.919 19.7261 16.5582 19.48C17.2172 19.2259 17.7729 18.8805 18.3287 18.3247C18.8845 17.769 19.2259 17.2092 19.4839 16.5542C19.7301 15.919 19.9008 15.1925 19.9484 14.1247C19.996 13.0568 20.008 12.7193 20.008 10C20.008 7.2807 19.996 6.9432 19.9484 5.8753C19.9008 4.8114 19.7301 4.085 19.4839 3.4458C19.2299 2.7868 18.8845 2.231 18.3287 1.6753C17.7729 1.1195 17.2132 0.7781 16.5582 0.52C15.923 0.2739 15.1965 0.1032 14.1286 0.0556002C13.0568 0.0119002 12.7154 0 10 0Z" fill="white"/>
<path fill-rule="evenodd" clip-rule="evenodd" d="M10 1.8023C12.6717 1.8023 12.9853 1.8142 14.0413 1.8618C15.0179 1.9055 15.5459 2.0683 15.8992 2.2072C16.3676 2.3898 16.7011 2.6042 17.0504 2.9536C17.3998 3.3029 17.6181 3.6364 17.7968 4.1048C17.9317 4.4581 18.0985 4.9861 18.1421 5.9627C18.1898 7.0187 18.2017 7.3323 18.2017 10.004C18.2017 12.6757 18.1898 12.9893 18.1421 14.0453C18.0985 15.0218 17.9357 15.5498 17.7968 15.9031C17.6141 16.3716 17.3998 16.705 17.0504 17.0544C16.7011 17.4037 16.3676 17.6221 15.8992 17.8007C15.5459 17.9357 15.0179 18.1024 14.0413 18.1461C12.9853 18.1937 12.6717 18.2056 10 18.2056C7.3283 18.2056 7.0147 18.1937 5.9587 18.1461C4.9821 18.1024 4.4542 17.9397 4.1008 17.8007C3.6324 17.6181 3.2989 17.4037 2.9496 17.0544C2.6002 16.705 2.3819 16.3716 2.2033 15.9031C2.0683 15.5498 1.9015 15.0218 1.8579 14.0453C1.8102 12.9893 1.7983 12.6757 1.7983 10.004C1.7983 7.3323 1.8102 7.0187 1.8579 5.9627C1.9015 4.9861 2.0643 4.4581 2.2033 4.1048C2.3859 3.6364 2.6002 3.3029 2.9496 2.9536C3.2989 2.6042 3.6324 2.3859 4.1008 2.2072C4.4542 2.0723 4.9821 1.9055 5.9587 1.8618C7.0147 1.8102 7.3323 1.8023 10 1.8023ZM10.0002 4.8672C7.16578 4.8672 4.86328 7.1657 4.86328 10.0041C4.86328 12.8426 7.16178 15.1411 10.0002 15.1411C12.8387 15.1411 15.1372 12.8426 15.1372 10.0041C15.1372 7.1657 12.8387 4.8672 10.0002 4.8672ZM6.66558 10.0002C6.66558 11.8422 8.15818 13.3348 10.0002 13.3348C11.8422 13.3348 13.3349 11.8422 13.3349 10.0002C13.3349 8.1582 11.8422 6.6655 10.0002 6.6655C8.15818 6.6655 6.66558 8.1582 6.66558 10.0002ZM16.5384 4.6608C16.5384 5.3229 16.0016 5.8597 15.3395 5.8597C14.6774 5.8597 14.1406 5.3229 14.1406 4.6608C14.1406 3.9987 14.6774 3.4619 15.3395 3.4619C16.0016 3.4619 16.5384 3.9987 16.5384 4.6608Z" fill="#111111"/>
</svg>
