<svg width="20" height="20" viewBox="0 0 20 20" fill="none" xmlns="http://www.w3.org/2000/svg">
<path d="M18.5236 0H1.4764C1.0848 0 0.7093 0.1555 0.4324 0.4324C0.1555 0.7093 0 1.0848 0 1.4764V18.5236C0 18.9152 0.1555 19.2907 0.4324 19.5676C0.7093 19.8445 1.0848 20 1.4764 20H18.5236C18.9152 20 19.2907 19.8445 19.5676 19.5676C19.8445 19.2907 20 18.9152 20 18.5236V1.4764C20 1.0848 19.8445 0.7093 19.5676 0.4324C19.2907 0.1555 18.9152 0 18.5236 0ZM5.9611 17.0375H2.9542V7.4861H5.9611V17.0375ZM4.4556 6.1625C4.1145 6.1606 3.7816 6.0577 3.4989 5.8667C3.2163 5.6758 2.9965 5.4054 2.8674 5.0897C2.7383 4.774 2.7055 4.4272 2.7734 4.0929C2.8412 3.7586 3.0065 3.4519 3.2485 3.2115C3.4904 2.9711 3.7982 2.8077 4.1329 2.7421C4.4676 2.6764 4.8143 2.7113 5.1291 2.8425C5.444 2.9736 5.7129 3.1951 5.9021 3.479C6.0912 3.7629 6.1919 4.0964 6.1917 4.4375C6.1949 4.6659 6.1521 4.8925 6.0658 5.104C5.9796 5.3155 5.8517 5.5074 5.6896 5.6684C5.5276 5.8294 5.3349 5.9561 5.1229 6.041C4.9108 6.1258 4.6839 6.1672 4.4556 6.1625ZM17.0444 17.0458H14.0389V11.8278C14.0389 10.2889 13.3847 9.8139 12.5403 9.8139C11.6486 9.8139 10.7736 10.4861 10.7736 11.8667V17.0458H7.7667V7.4931H10.6583V8.8167H10.6972C10.9875 8.2292 12.0042 7.225 13.5556 7.225C15.2333 7.225 17.0458 8.2208 17.0458 11.1375L17.0444 17.0458Z" fill="white"/>
</svg>
