<svg width="395" height="16" viewBox="0 0 395 16" fill="none" xmlns="http://www.w3.org/2000/svg">
<g clip-path="url(#clip0_170_552)">
<path d="M0 8.77271H83V12.5638L0 12.5553V8.77271Z" fill="url(#paint0_linear_170_552)"/>
<path d="M88.6911 15.7566H83.7806L77.6458 4.13198H73.5409L67.4106 15.7566H62.5L70.6828 0.241455H80.5038L88.6911 15.7566Z" fill="#FF1400"/>
<path d="M91.0352 0.241455V15.7566H108.899V11.8746H95.1265V0.241455H91.0352Z" fill="#FF1400"/>
<path d="M121.331 0.241455L117.24 4.11918H130.5V8.7861H117.24V4.11918V0.241455H113.148V15.7566H117.24V12.587H130.5L134.591 8.7861V0.241455H121.331Z" fill="#FF1400"/>
<path d="M155.205 0.241455V8.7861H142.931V0.241455H138.84V15.7566H142.931V12.587H155.205V15.7566H159.297V0.241455H155.205Z" fill="#FF1400"/>
<path d="M183.456 15.7566H188.366L180.184 0.241455H170.362L162.18 15.7566H167.09L168.76 12.587H181.786L183.456 15.7566ZM170.763 8.7861L173.221 4.13198H177.325L179.783 8.7861H170.768H170.763Z" fill="#FF1400"/>
<path d="M222.234 15.7566H227.144L218.957 0.241455H209.136L200.953 15.7566H205.864L207.538 12.5828H220.555L222.229 15.7566H222.234ZM209.55 8.7733L212.039 4.05092H216.058L218.547 8.7733H209.545H209.55Z" fill="#AA002D"/>
<path d="M325.163 15.7566H330.073L321.891 0.241455H312.069L303.887 15.7566H308.797L310.472 12.5828H323.488L325.163 15.7566ZM312.479 8.7733L314.968 4.05092H318.987L321.476 8.7733H312.475H312.479Z" fill="#AA002D"/>
<path d="M276.826 0.241455V15.7566H294.065V11.9173H280.967V0.241455H276.826Z" fill="#AA002D"/>
<path d="M347.995 0.241455H327.705V4.13198H335.811V15.7566H339.889V4.13198H347.995V0.241455Z" fill="#AA002D"/>
<path d="M273.386 0.241455H269.309V15.7566H273.386V0.241455Z" fill="#AA002D"/>
<path d="M301.582 0.241455H297.504V15.7566H301.582V0.241455Z" fill="#AA002D"/>
<path d="M245.932 4.13373V0.268799H229.121V15.7584H233.199V9.89699H244.136V6.10032H233.199V4.13373H245.932Z" fill="#AA002D"/>
<path d="M266.028 4.13373V0.268799H249.217V15.7584H253.295V9.89699H264.232V6.10032H253.295V4.13373H266.028Z" fill="#AA002D"/>
<path d="M394.724 11.9173V6.06444H378.273V4.12771H394.724V0.241455H378.273L374.199 4.13198V9.9251H390.65V11.9173H374.199V15.7268H390.65L394.724 11.9173Z" fill="#AA002D"/>
<path d="M355.984 9.89524H364.982V6.09857H355.984V4.13198V0.241455H351.906V15.7566H355.984H370.378V11.9173H355.984V9.89524Z" fill="#AA002D"/>
<path d="M360.075 0.241455L355.988 4.13198H370.378V0.241455H360.075Z" fill="#AA002D"/>
</g>
<defs>
<linearGradient id="paint0_linear_170_552" x1="0" y1="10.6661" x2="83" y2="10.6661" gradientUnits="userSpaceOnUse">
<stop stop-color="#AA002D"/>
<stop offset="0.03" stop-color="#AD002B"/>
<stop offset="0.31" stop-color="#D00918"/>
<stop offset="0.57" stop-color="#EA0F0A"/>
<stop offset="0.81" stop-color="#F91202"/>
<stop offset="1" stop-color="#FF1400"/>
</linearGradient>
<clipPath id="clip0_170_552">
<rect width="395" height="16" fill="white"/>
</clipPath>
</defs>
</svg>
