<svg width="1917" height="204" viewBox="0 0 1917 204" fill="none" xmlns="http://www.w3.org/2000/svg">
<path d="M0.190368 199V5.09999H93.5394C111.637 5.09999 127.241 8.05465 140.352 13.964C153.648 19.8733 163.897 28.368 171.099 39.448C178.301 50.3433 181.902 63.27 181.902 78.228C181.902 93.186 178.301 106.113 171.099 117.008C163.897 127.719 153.648 135.936 140.352 141.661C127.241 147.386 111.637 150.248 93.5394 150.248H36.4774L65.5624 123.379V199H0.190368ZM116.253 199L68.6094 128.365H137.859L186.057 199H116.253ZM65.5624 130.581L36.4774 100.942H89.3844C98.433 100.942 105.081 98.9107 109.328 94.848C113.76 90.7853 115.976 85.2453 115.976 78.228C115.976 71.2107 113.76 65.6707 109.328 61.608C105.081 57.5453 98.433 55.514 89.3844 55.514H36.4774L65.5624 25.875V130.581ZM266.42 77.12H352.844V124.21H266.42V77.12ZM270.852 149.694H367.802V199H206.588V5.09999H364.201V54.406H270.852V149.694ZM392.968 199V5.09999H458.34V148.309H545.872V199H392.968ZM662.883 203.432C647.186 203.432 632.597 200.939 619.117 195.953C605.821 190.967 594.279 183.95 584.492 174.901C574.704 165.668 567.041 154.865 561.501 142.492C556.145 130.119 553.468 116.639 553.468 102.05C553.468 87.2767 556.145 73.796 561.501 61.608C567.041 49.2353 574.704 38.5247 584.492 29.476C594.279 20.2427 605.821 13.133 619.117 8.147C632.597 3.161 647.186 0.667994 662.883 0.667994C678.764 0.667994 693.353 3.161 706.649 8.147C719.945 13.133 731.486 20.2427 741.274 29.476C751.061 38.5247 758.632 49.2353 763.988 61.608C769.528 73.796 772.298 87.2767 772.298 102.05C772.298 116.639 769.528 130.119 763.988 142.492C758.632 154.865 751.061 165.668 741.274 174.901C731.486 183.95 719.945 190.967 706.649 195.953C693.353 200.939 678.764 203.432 662.883 203.432ZM662.883 150.525C668.977 150.525 674.609 149.417 679.78 147.201C685.135 144.985 689.752 141.846 693.63 137.783C697.692 133.536 700.832 128.457 703.048 122.548C705.264 116.454 706.372 109.621 706.372 102.05C706.372 94.4787 705.264 87.7383 703.048 81.829C700.832 75.735 697.692 70.6567 693.63 66.594C689.752 62.3467 685.135 59.115 679.78 56.899C674.609 54.683 668.977 53.575 662.883 53.575C656.789 53.575 651.064 54.683 645.709 56.899C640.538 59.115 635.921 62.3467 631.859 66.594C627.981 70.6567 624.934 75.735 622.718 81.829C620.502 87.7383 619.394 94.4787 619.394 102.05C619.394 109.621 620.502 116.454 622.718 122.548C624.934 128.457 627.981 133.536 631.859 137.783C635.921 141.846 640.538 144.985 645.709 147.201C651.064 149.417 656.789 150.525 662.883 150.525ZM896.298 203.432C880.786 203.432 866.382 201.031 853.086 196.23C839.975 191.244 828.526 184.227 818.738 175.178C809.136 166.129 801.657 155.419 796.301 143.046C790.946 130.673 788.268 117.008 788.268 102.05C788.268 87.092 790.946 73.4267 796.301 61.054C801.657 48.6813 809.136 37.9707 818.738 28.922C828.526 19.8733 839.975 12.9483 853.086 8.147C866.382 3.161 880.786 0.667994 896.298 0.667994C915.319 0.667994 932.124 3.992 946.712 10.64C961.486 17.288 973.674 26.8907 983.276 39.448L942.003 76.289C936.279 69.087 929.908 63.547 922.89 59.669C916.058 55.6063 908.302 53.575 899.622 53.575C892.79 53.575 886.603 54.683 881.063 56.899C875.523 59.115 870.722 62.3467 866.659 66.594C862.781 70.8413 859.734 76.012 857.518 82.106C855.302 88.0153 854.194 94.6633 854.194 102.05C854.194 109.437 855.302 116.177 857.518 122.271C859.734 128.18 862.781 133.259 866.659 137.506C870.722 141.753 875.523 144.985 881.063 147.201C886.603 149.417 892.79 150.525 899.622 150.525C908.302 150.525 916.058 148.586 922.89 144.708C929.908 140.645 936.279 135.013 942.003 127.811L983.276 164.652C973.674 177.025 961.486 186.627 946.712 193.46C932.124 200.108 915.319 203.432 896.298 203.432ZM978.394 199L1063.16 5.09999H1127.42L1212.18 199H1144.59L1081.99 36.124H1107.48L1044.87 199H978.394ZM1028.81 165.206L1045.43 118.116H1134.62L1151.24 165.206H1028.81ZM1254.98 199V55.791H1198.2V5.09999H1377.14V55.791H1320.35V199H1254.98ZM1394.12 199V5.09999H1459.49V199H1394.12ZM1592.62 203.432C1576.92 203.432 1562.33 200.939 1548.85 195.953C1535.56 190.967 1524.01 183.95 1514.23 174.901C1504.44 165.668 1496.78 154.865 1491.24 142.492C1485.88 130.119 1483.2 116.639 1483.2 102.05C1483.2 87.2767 1485.88 73.796 1491.24 61.608C1496.78 49.2353 1504.44 38.5247 1514.23 29.476C1524.01 20.2427 1535.56 13.133 1548.85 8.147C1562.33 3.161 1576.92 0.667994 1592.62 0.667994C1608.5 0.667994 1623.09 3.161 1636.38 8.147C1649.68 13.133 1661.22 20.2427 1671.01 29.476C1680.8 38.5247 1688.37 49.2353 1693.72 61.608C1699.26 73.796 1702.03 87.2767 1702.03 102.05C1702.03 116.639 1699.26 130.119 1693.72 142.492C1688.37 154.865 1680.8 165.668 1671.01 174.901C1661.22 183.95 1649.68 190.967 1636.38 195.953C1623.09 200.939 1608.5 203.432 1592.62 203.432ZM1592.62 150.525C1598.71 150.525 1604.34 149.417 1609.51 147.201C1614.87 144.985 1619.49 141.846 1623.36 137.783C1627.43 133.536 1630.57 128.457 1632.78 122.548C1635 116.454 1636.11 109.621 1636.11 102.05C1636.11 94.4787 1635 87.7383 1632.78 81.829C1630.57 75.735 1627.43 70.6567 1623.36 66.594C1619.49 62.3467 1614.87 59.115 1609.51 56.899C1604.34 54.683 1598.71 53.575 1592.62 53.575C1586.52 53.575 1580.8 54.683 1575.44 56.899C1570.27 59.115 1565.66 62.3467 1561.59 66.594C1557.72 70.6567 1554.67 75.735 1552.45 81.829C1550.24 87.7383 1549.13 94.4787 1549.13 102.05C1549.13 109.621 1550.24 116.454 1552.45 122.548C1554.67 128.457 1557.72 133.536 1561.59 137.783C1565.66 141.846 1570.27 144.985 1575.44 147.201C1580.8 149.417 1586.52 150.525 1592.62 150.525ZM1725.76 199V5.09999H1779.5L1878.11 123.102H1853.18V5.09999H1916.89V199H1863.15L1764.54 80.998H1789.47V199H1725.76Z" fill="#1A1A1A" fill-opacity="0.05"/>
</svg>
