<svg width="26" height="18" viewBox="0 0 26 18" fill="none" xmlns="http://www.w3.org/2000/svg">
<path d="M9.12083 13.8937L22.5396 0.475C22.8563 0.158334 23.2326 0 23.6685 0C24.1044 0 24.4802 0.158334 24.7958 0.475C25.1125 0.791667 25.2708 1.16797 25.2708 1.60392C25.2708 2.03986 25.1125 2.41564 24.7958 2.73125L10.2292 17.2979C9.9125 17.6146 9.54306 17.7729 9.12083 17.7729C8.69861 17.7729 8.32917 17.6146 8.0125 17.2979L1.20417 10.4896C0.887501 10.1729 0.735501 9.79714 0.748167 9.36225C0.760834 8.92736 0.926028 8.55105 1.24375 8.23333C1.56042 7.91667 1.93672 7.75833 2.37267 7.75833C2.80861 7.75833 3.18439 7.91667 3.5 8.23333L9.12083 13.8937Z" fill="white"/>
</svg>
