<svg width="22" height="18" viewBox="0 0 22 18" fill="none" xmlns="http://www.w3.org/2000/svg">
<path fill-rule="evenodd" clip-rule="evenodd" d="M1.45583 7.55523C7.14053 5.07853 10.9312 3.44573 12.8279 2.65683C18.2433 0.404333 19.3686 0.0130342 20.102 0.000134149C20.2633 -0.00266585 20.624 0.037234 20.8576 0.226834C21.0549 0.386934 21.1092 0.603134 21.1352 0.754934C21.1611 0.906734 21.1935 1.25243 21.1678 1.52263C20.8743 4.60603 19.6045 12.0887 18.9585 15.5422C18.6851 17.0035 18.1469 17.4935 17.6258 17.5414C16.4934 17.6456 15.6335 16.793 14.5367 16.0741C12.8205 14.949 11.8509 14.2487 10.1849 13.1509C8.25973 11.8821 9.50773 11.1848 10.605 10.0452C10.8921 9.74704 15.8815 5.20873 15.9781 4.79703C15.9902 4.74553 16.0014 4.55363 15.8874 4.45233C15.7734 4.35093 15.6051 4.38563 15.4836 4.41313C15.3115 4.45223 12.5697 6.26444 7.25833 9.84974C6.48013 10.3841 5.77523 10.6445 5.14363 10.6309C4.44743 10.6158 3.10813 10.2372 2.11243 9.91353C0.891228 9.51663 -0.0793716 9.30673 0.0051284 8.63253C0.0492284 8.28143 0.532728 7.92233 1.45583 7.55523Z" fill="white"/>
</svg>
